<svg xmlns="http://www.w3.org/2000/svg" viewBox="0 0 304.65 360.15"><defs><style>.cls-1,.cls-3{fill:#eb7dae;}.cls-1{opacity:0.7;}.cls-2{font-size:20px;fill:#271d12;font-family:HelveticaNeue-Medium, Helvetica Neue;}.cls-3{opacity:0.5;}</style></defs><title>アセット 10</title><g id="レイヤー_2" data-name="レイヤー 2"><g id="レイヤー_1-2" data-name="レイヤー 1"><rect class="cls-1" x="236.33" y="238.58" width="5.36" height="5.36"/><rect class="cls-1" x="236.33" y="249.29" width="5.36" height="5.36"/><rect class="cls-1" x="241.69" y="265.35" width="5.36" height="5.36"/><rect class="cls-1" x="236.33" y="227.86" width="5.36" height="5.36"/><rect class="cls-1" x="236.33" y="260" width="5.36" height="5.36"/><rect class="cls-1" x="236.33" y="270.71" width="5.36" height="5.36"/><path class="cls-1" d="M268.79,209.92v1.88h2.77C270.65,211.14,269.73,210.52,268.79,209.92Z"/><path class="cls-1" d="M187.48,265.35V260h5.36v-5.36h-5.36v-5.35h5.36v-5.36h-5.36v-5.35h5.36v-5.36h-3.57q-1.08,2.33-2,4.75v.61h-.2a53,53,0,0,0-1.53,5.35h1.73v5.36h-2.7c-.23,1.76-.37,3.54-.43,5.35h3.13V260h-3c.12,1.81.32,3.59.61,5.35h2.44v5.36H186c.42,1.57.9,3.13,1.45,4.64v-4.64h5.36v-5.36Z"/><rect class="cls-1" x="236.33" y="217.15" width="5.36" height="5.36"/><path class="cls-1" d="M279.66,219v3.53h3Q281.23,220.68,279.66,219Z"/><rect class="cls-1" x="241.69" y="276.06" width="5.36" height="5.36"/><rect class="cls-1" x="241.69" y="243.93" width="5.36" height="5.36"/><rect class="cls-1" x="236.33" y="292.13" width="5.36" height="5.36"/><rect class="cls-1" x="241.69" y="254.64" width="5.36" height="5.36"/><rect class="cls-1" x="241.69" y="297.49" width="5.36" height="5.36"/><path class="cls-1" d="M247,201.88c-1.76-.25-3.54-.42-5.35-.5v5.06H247Z"/><rect class="cls-1" x="241.69" y="286.78" width="5.36" height="5.36"/><rect class="cls-1" x="236.33" y="206.44" width="5.36" height="5.36"/><rect class="cls-1" x="241.69" y="233.22" width="5.36" height="5.36"/><rect class="cls-1" x="241.69" y="211.8" width="5.36" height="5.36"/><rect class="cls-1" x="241.69" y="222.51" width="5.36" height="5.36"/><rect class="cls-1" x="236.33" y="281.42" width="5.36" height="5.36"/><path class="cls-1" d="M252.56,302.84h5.35v-5.35h-5.35v-5.36h5.35v-5.35h-5.35v-5.36h5.35v-5.36h-5.35v-5.35h5.35v-5.36h-5.35V260h5.35v-5.36h-5.35v-5.35h5.35v-5.36h-5.35v-5.35h5.35v-5.36h-5.35v-5.36h5.35v-5.35h-5.35v-5.36h5.35V211.8h-5.35v-5.36h5.35v-1.87a53.14,53.14,0,0,0-5.51-1.66v3.53H247v5.36h5.36v5.35H247v5.36h5.36v5.35H247v5.36h5.36v5.36H247v5.35h5.36v5.36H247v5.35h5.36V260H247v5.35h5.36v5.36H247v5.35h5.36v5.36H247v5.36h5.36v5.35H247v5.36h5.36v5.35H247v5.36h5.36v1.73a55.66,55.66,0,0,0,5.51-1.65v-.08h-5.35Z"/><rect class="cls-1" x="236.33" y="302.84" width="5.36" height="5.36"/><path class="cls-1" d="M225.46,309.78V308.2h-5.11A52.12,52.12,0,0,0,225.46,309.78Z"/><path class="cls-1" d="M241.69,311.46c1.81-.08,3.59-.24,5.35-.49V308.2h-5.35Z"/><path class="cls-1" d="M203.71,298.52v-1h-1.19C202.91,297.84,203.31,298.18,203.71,298.52Z"/><path class="cls-1" d="M187.76,276.06a53.62,53.62,0,0,0,2.39,5.36h2.69v-5.36Z"/><path class="cls-1" d="M263.43,292.13h5.36v-5.35h-5.36v-5.36h5.36v-5.36h-5.36v-5.35h5.36v-5.36h-5.36V260h5.36v-5.36h-5.36v-5.35h5.36v-5.36h-5.36v-5.35h5.36v-5.36h-5.36v-5.36h5.36v-5.35h-5.36v-5.36h5.36V211.8h-5.36v-4.89l-1-.47h-4.54v5.36h5.36v5.35h-5.36v5.36h5.36v5.35h-5.36v5.36h5.36v5.36h-5.36v5.35h5.36v5.36h-5.36v5.35h5.36V260h-5.36v5.35h5.36v5.36h-5.36v5.35h5.36v5.36h-5.36v5.36h5.36v5.35h-5.36v5.36h5.36v5.35h-5.36v5.36h.24a53.72,53.72,0,0,0,5.28-2.26v-3.1h5.36v-5.35h-5.36Z"/><path class="cls-1" d="M220.1,297.49v-5.36h5.36v-5.35H220.1v-5.36h5.36v-5.36H220.1v-5.35h5.36v-5.36H220.1V260h5.36v-5.36H220.1v-5.35h5.36v-5.36H220.1v-5.35h5.36v-5.36H220.1v-5.36h5.36v-5.35H220.1v-5.36h5.36V211.8H220.1v-5.36h5.36v-3.38a54.49,54.49,0,0,0-5.52,1.75v1.63h-3.89l-1.46.71v4.65h5.35v5.35h-5.35v5.36h5.35v5.35h-5.35v5.36h5.35v5.36h-5.35v5.35h5.35v5.36h-5.35v5.35h5.35V260h-5.35v5.35h5.35v5.36h-5.35v5.35h5.35v5.36h-5.35v5.36h5.35v5.35h-5.35v5.36h5.35v5.35h-5.35v2.86a55.24,55.24,0,0,0,5.51,2.4v-5.26h5.36v-5.35Z"/><path class="cls-1" d="M231,302.84h5.35v-5.35H231v-5.36h5.35v-5.35H231v-5.36h5.35v-5.36H231v-5.35h5.35v-5.36H231V260h5.35v-5.36H231v-5.35h5.35v-5.36H231v-5.35h5.35v-5.36H231v-5.36h5.35v-5.35H231v-5.36h5.35V211.8H231v-5.36h5.35v-5q-2.79.15-5.52.56v4.48h-5.35v5.36h5.35v5.35h-5.35v5.36h5.35v5.35h-5.35v5.36h5.35v5.36h-5.35v5.35h5.35v5.36h-5.35v5.35h5.35V260h-5.35v5.35h5.35v5.36h-5.35v5.35h5.35v5.36h-5.35v5.36h5.35v5.35h-5.35v5.36h5.35v5.35h-5.35v5.36h5.35v2.68q2.73.42,5.52.57V308.2H231Z"/><path class="cls-1" d="M292.91,243.93a53,53,0,0,0-1.53-5.35h-.85v5.35Z"/><path class="cls-1" d="M294.3,254.64a52.38,52.38,0,0,0-.43-5.35h-3.34v5.35Z"/><path class="cls-1" d="M192.11,227.86h.73v-1.13Z"/><path class="cls-1" d="M293.62,265.35a52.41,52.41,0,0,0,.6-5.35h-3.69v5.35Z"/><path class="cls-1" d="M289.23,233.22h-4.05v-5.36h1.2c-.44-.72-.89-1.43-1.36-2.13v2.13h-5.36v5.36H285v5.36h-5.36v5.35H285v5.36h-5.36v5.35H285V260h-5.36v5.35H285v5.36h-5.36v5.35H285v5.36h-5.36v5.36H285v.33l.21-.33h-.05v-5.36h3.17q1.2-2.35,2.18-4.85v-.51h-5.35v-5.35h5.35v-5.36h-5.35V260h5.35v-5.36h-5.35v-5.35h5.35v-5.36h-5.35v-5.35h5.35v-2.3C290.13,235.24,289.69,234.22,289.23,233.22Z"/><path class="cls-1" d="M281.2,292.13h-1.54v1.74C280.19,293.3,280.7,292.72,281.2,292.13Z"/><path class="cls-1" d="M274.3,281.42h5.36v-5.36H274.3v-5.35h5.36v-5.36H274.3V260h5.36v-5.36H274.3v-5.35h5.36v-5.36H274.3v-5.35h5.36v-5.36H274.3v-5.36h5.36v-5.35H274.3v-5.36h3.59q-1.8-1.77-3.75-3.37v3.37h-5.35v5.36h5.35v5.35h-5.35v5.36h5.35v5.36h-5.35v5.35h5.35v5.36h-5.35v5.35h5.35V260h-5.35v5.35h5.35v5.36h-5.35v5.35h5.35v5.36h-5.35v5.36h5.35v5.35h-5.35v5.36h5.35v1.57c.63-.51,1.24-1,1.84-1.57H274.3v-5.36h5.36v-5.35H274.3Z"/><path class="cls-1" d="M290.73,276.06a53.89,53.89,0,0,0,1.74-5.35h-1.94v5.35Z"/><path class="cls-1" d="M198.36,286.78v-5.36h5.35v-5.36h-5.35v-5.35h5.35v-5.36h-5.35V260h5.35v-5.36h-5.35v-5.35h5.35v-5.36h-5.35v-5.35h5.35v-5.36h-5.35v-5.36h5.35v-5.35h-5.35v-3c-.88,1-1.72,2-2.52,3h2.36v5.35h-5.36v5.36h5.36v5.36h-5.36v5.35h5.36v5.36h-5.36v5.35h5.36V260h-5.36v5.35h5.36v5.36h-5.36v5.35h5.36v5.36h-5.36v4.69l.42.67h4.94v5.35h-.9c.35.41.7.82,1.06,1.22v-1.22h5.35v-5.35Z"/><path class="cls-1" d="M268.92,302.84h-.13v.09Z"/><path class="cls-1" d="M200.61,217.15h3.1v-2.83C202.64,215.23,201.6,216.17,200.61,217.15Z"/><path class="cls-1" d="M209.23,297.49v-5.36h5.36v-5.35h-5.36v-5.36h5.36v-5.36h-5.36v-5.35h5.36v-5.36h-5.36V260h5.36v-5.36h-5.36v-5.35h5.36v-5.36h-5.36v-5.35h5.36v-5.36h-5.36v-5.36h5.36v-5.35h-5.36v-5.36h5.36V211.8h-5.36v-1.58c-.78.51-1.54,1-2.29,1.58h2.13v5.35h-5.36v5.36h5.36v5.35h-5.36v5.36h5.36v5.36h-5.36v5.35h5.36v5.36h-5.36v5.35h5.36V260h-5.36v5.35h5.36v5.36h-5.36v5.35h5.36v5.36h-5.36v5.36h5.36v5.35h-5.36v5.36h5.36v5l.5.32h5v-5.35Z"/><path class="cls-1" d="M80.05,304.63l3.74-3.75,0,0,0,0,3.74,3.75,2.31-2.32h0l1.41-1.42,0,0v0l1.42,1.42h0L94,303.54a55,55,0,0,0,7.85-5.79l-.64-.65-2.36-2.36-2.36,2.36-1.41,1.42-1.42-1.42-2.31-2.31L89,297.1l-1.41,1.42-1.42-1.42-2.35-2.36-2.36,2.36-1.42,1.42-1.41-1.42-2.32-2.31L74,297.1l-1.42,1.42-1.41-1.42-2.36-2.36-2.36,2.36-1.41,1.42-1.42-1.42-2.31-2.31L59,297.1l-1.41,1.42-1.42-1.42-2.36-2.36-2.36,2.36L50,298.52l-1.42-1.42-2.31-2.31L44,297.1l-1.42,1.42-1.41-1.42-2.36-2.36-2.36,2.36L35,298.52l-1.41-1.42-2.31-2.31L29,297.1l-.35.36a55.75,55.75,0,0,0,7.75,5.81l2.39-2.39,0,0,0,0,3.74,3.75,2.32-2.32h0l1.42-1.42v0l0,0,1.41,1.42h0L50,304.63l3.74-3.75,0,0,0,0,3.75,3.75,2.31-2.32h0l1.41-1.42,0,0v0l1.42,1.42h0l2.32,2.32,3.74-3.75,0,0,0,0,3.74,3.75,2.32-2.32h0l1.42-1.42v0l0,0,1.41,1.42h0Z"/><path class="cls-1" d="M95.06,295.69,98.8,292l0,0,0,0,3.74,3.74,2.32-2.32h0l1.42-1.41h0l.62.62q1.43-1.63,2.72-3.36l-1-1-2.32-2.32L104,288.17l-1.42,1.41-1.41-1.41-2.36-2.36-2.36,2.36-1.41,1.41-1.42-1.41-2.31-2.32L89,288.17l-1.41,1.41-1.42-1.41-2.35-2.36-2.36,2.36-1.42,1.41-1.41-1.41-2.32-2.32L74,288.17l-1.42,1.41-1.41-1.41-2.36-2.36-2.36,2.36-1.41,1.41-1.42-1.41-2.31-2.32L59,288.17l-1.41,1.41-1.42-1.41-2.36-2.36-2.36,2.36L50,289.58l-1.42-1.41-2.31-2.32L44,288.17l-1.42,1.41-1.41-1.41-2.36-2.36-2.36,2.36L35,289.58l-1.41-1.41-2.31-2.32L29,288.17l-1.41,1.41-1.42-1.41-2.36-2.36-2.36,2.36-.62.62c.85,1.18,1.75,2.31,2.69,3.41l.26-.25,0,0,0,0,3.75,3.74,2.31-2.32h0L31.29,292h0l1.41,1.41h0L35,295.69,38.78,292l0,0,0,0,3.74,3.74,2.32-2.32h0L46.3,292h0l1.41,1.41h0L50,295.69,53.78,292l0,0,0,0,3.75,3.74,2.31-2.32h0L61.3,292h0l1.42,1.41h0l2.32,2.32L68.79,292l0,0,0,0,3.74,3.74,2.32-2.32h0L76.31,292h0l1.41,1.41h0l2.31,2.32L83.79,292l0,0,0,0,3.74,3.74,2.31-2.32h0L91.31,292h0l1.42,1.41h0Z"/><path class="cls-1" d="M113.84,276.87l-2.36,2.36-1.42,1.41-1.41-1.41-2.32-2.31L104,279.23l-1.42,1.41-1.41-1.41-2.36-2.36-2.36,2.36-1.41,1.41-1.42-1.41-2.31-2.31L89,279.23l-1.41,1.41-1.42-1.41-2.35-2.36-2.36,2.36-1.42,1.41-1.41-1.41-2.32-2.31L74,279.23l-1.42,1.41-1.41-1.41-2.36-2.36-2.36,2.36-1.41,1.41-1.42-1.41-2.31-2.31L59,279.23l-1.41,1.41-1.42-1.41-2.36-2.36-2.36,2.36L50,280.64l-1.42-1.41-2.31-2.31L44,279.23l-1.42,1.41-1.41-1.41-2.36-2.36-2.36,2.36L35,280.64l-1.41-1.41-2.31-2.31L29,279.23l-1.41,1.41-1.42-1.41-2.36-2.36-2.36,2.36L20,280.64l-1.42-1.41-2.31-2.31-1.45,1.44A54.78,54.78,0,0,0,18.28,285L20,286.75,23.77,283l0,0,0,0,3.75,3.74,2.31-2.31v0L31.29,283h0l1.41,1.41v0L35,286.75,38.78,283l0,0,0,0,3.74,3.74,2.32-2.31,0,0L46.3,283h0l1.41,1.41v0L50,286.75,53.78,283l0,0,0,0,3.75,3.74,2.31-2.31v0L61.3,283h0l1.42,1.41,0,0,2.32,2.31L68.79,283l0,0,0,0,3.74,3.74,2.32-2.31,0,0L76.31,283h0l1.41,1.41v0l2.31,2.31L83.79,283l0,0,0,0,3.74,3.74,2.31-2.31v0L91.31,283h0l1.42,1.41,0,0,2.32,2.31L98.8,283l0,0,0,0,3.74,3.74,2.32-2.31,0,0,1.42-1.41h0l1.41,1.41v0l2.31,2.31,3.42-3.42c.83-1.47,1.58-3,2.28-4.54Z"/><path class="cls-1" d="M23.11,221.11l.66-.66,0,0,0,0,3.75,3.74,2.31-2.31v0l1.41-1.41h0l1.41,1.41v0L35,224.19l3.75-3.74,0,0,0,0,3.74,3.74,2.32-2.31,0,0,1.42-1.41h0l1.41,1.41v0L50,224.19l3.74-3.74,0,0,0,0,3.75,3.74,2.31-2.31v0l1.41-1.41h0l1.42,1.41,0,0,2.32,2.31,3.74-3.74,0,0,0,0,3.74,3.74,2.32-2.31,0,0,1.42-1.41h0l1.41,1.41v0l2.31,2.31,3.74-3.74,0,0,0,0,3.74,3.74,2.31-2.31v0l1.41-1.41h0l1.42,1.41,0,0,2.32,2.31,3.74-3.74,0,0,0,0,3.74,3.74,2.32-2.31,0,0,1.42-1.41h0l1.41,1.41v0l2.31,2.31h0a54.51,54.51,0,0,0-6.29-7.27l-1.18,1.17-1.41-1.41-2.36-2.36-2.36,2.36-1.41,1.41-1.42-1.41-2.31-2.32L89,216.67l-1.41,1.41-1.42-1.41-2.35-2.36-2.36,2.36-1.42,1.41-1.41-1.41-2.32-2.32L74,216.67l-1.42,1.41-1.41-1.41-2.36-2.36-2.36,2.36-1.41,1.41-1.42-1.41-2.31-2.32L59,216.67l-1.41,1.41-1.42-1.41-2.36-2.36-2.36,2.36L50,218.08l-1.42-1.41-2.31-2.32L44,216.67l-1.42,1.41-1.41-1.41-2.36-2.36-2.36,2.36L35,218.08l-1.41-1.41-2.31-2.32L29,216.67l-1.41,1.41-.88-.87A53,53,0,0,0,23.11,221.11Z"/><path class="cls-1" d="M32.73,212.92v0L35,215.25l3.75-3.74,0,0,0,0,3.74,3.74,2.32-2.31,0,0,1.42-1.41h0l1.41,1.41v0L50,215.25l3.74-3.74,0,0,0,0,3.75,3.74,2.31-2.31v0l1.41-1.41h0l1.42,1.41,0,0,2.32,2.31,3.74-3.74,0,0,0,0,3.74,3.74,2.32-2.31,0,0,1.42-1.41h0l1.41,1.41v0l2.31,2.31,3.74-3.74,0,0,0,0,3.74,3.74,2.31-2.31v0l1.41-1.41h0l1.42,1.41,0,0,2.32,2.31,3.12-3.12A56,56,0,0,0,89.75,207l-.74.74-1.41,1.41-1.42-1.41-2.35-2.36-2.36,2.36-1.42,1.41-1.41-1.41-2.32-2.31L74,207.73l-1.42,1.41-1.41-1.41-2.36-2.36-2.36,2.36-1.41,1.41-1.42-1.41-2.31-2.31L59,207.73l-1.41,1.41-1.42-1.41-2.36-2.36-2.36,2.36L50,209.14l-1.42-1.41-2.31-2.31L44,207.73l-1.42,1.41-1.41-1.41-.53-.53a54.94,54.94,0,0,0-8.41,5.22Z"/><path class="cls-1" d="M86.18,306l-2.35-2.36L81.47,306l-1.42,1.42L78.64,306l-2.32-2.31L74,306l-1.42,1.42L71.18,306l-2.36-2.36L66.46,306l-1.41,1.42L63.63,306l-2.31-2.31L59,306l-1.41,1.42L56.17,306l-2.36-2.36L51.45,306,50,307.46,48.62,306l-2.31-2.31L44,306l-.81.81A55.23,55.23,0,0,0,53.4,310.2l.38-.38,0,0,0,0,.62.61a54,54,0,0,0,5.44.82h0l1.41-1.42h0l1.42,1.42h0l.21.21q1.23.06,2.46.06c.58,0,1.15,0,1.73,0l1.66-1.66,0,0,0,0,1.47,1.47a52.63,52.63,0,0,0,5.23-.71l.76-.76h0l.5.51A54.65,54.65,0,0,0,87.18,307Z"/><path class="cls-1" d="M42.66,206.23l-.11.05,0,0Z"/><path class="cls-1" d="M89,306l-.31.32c1.18-.55,2.34-1.15,3.48-1.78l-.85-.85Z"/><path class="cls-1" d="M17.73,230.8h0L20,233.13l3.74-3.75,0,0,0,0,3.75,3.75,2.31-2.32h0l1.41-1.42,0,0v0l1.41,1.42h0L35,233.13l3.75-3.75,0,0,0,0,3.74,3.75,2.32-2.32h0l1.42-1.42v0l0,0,1.41,1.42h0L50,233.13l3.74-3.75,0,0,0,0,3.75,3.75,2.31-2.32h0l1.41-1.42,0,0v0l1.42,1.42h0l2.32,2.32,3.74-3.75,0,0,0,0,3.74,3.75,2.32-2.32h0l1.42-1.42v0l0,0,1.41,1.42h0l2.31,2.32,3.74-3.75,0,0,0,0,3.74,3.75,2.31-2.32h0l1.41-1.42,0,0v0l1.42,1.42h0l2.32,2.32,3.74-3.75,0,0,0,0,3.74,3.75,2.32-2.32h0l1.42-1.42v0l0,0,1.41,1.42h0l2.31,2.32,3.49-3.49q-1.08-1.95-2.31-3.8L110.06,227l-1.41-1.42-2.32-2.31L104,225.6,102.6,227l-1.41-1.42-2.36-2.35-2.36,2.35L95.06,227l-1.42-1.42-2.31-2.31L89,225.6,87.6,227l-1.42-1.42-2.35-2.35-2.36,2.35L80.05,227l-1.41-1.42-2.32-2.31L74,225.6,72.59,227l-1.41-1.42-2.36-2.35-2.36,2.35L65.05,227l-1.42-1.42-2.31-2.31L59,225.6,57.59,227l-1.42-1.42-2.36-2.35-2.36,2.35L50,227l-1.42-1.42-2.31-2.31L44,225.6,42.58,227l-1.41-1.42-2.36-2.35-2.36,2.35L35,227l-1.41-1.42-2.31-2.31L29,225.6,27.58,227l-1.42-1.42-2.36-2.35-2.36,2.35L20,227l-.75-.74c-.8,1.23-1.57,2.49-2.28,3.79Z"/><path class="cls-1" d="M12.57,242.06l2.31-2.31h0l1.41-1.42,0,0v0l1.42,1.42h0L20,242.06l3.74-3.74,0,0,0,0,3.75,3.74,2.31-2.31h0l1.41-1.42,0,0v0l1.41,1.42h0L35,242.06l3.75-3.74,0,0,0,0,3.74,3.74,2.32-2.31h0l1.42-1.42v0l0,0,1.41,1.42h0L50,242.06l3.74-3.74,0,0,0,0,3.75,3.74,2.31-2.31h0l1.41-1.42,0,0v0l1.42,1.42h0l2.32,2.31,3.74-3.74,0,0,0,0,3.74,3.74,2.32-2.31h0l1.42-1.42v0l0,0,1.41,1.42h0l2.31,2.31,3.74-3.74,0,0,0,0,3.74,3.74,2.31-2.31h0l1.41-1.42,0,0v0l1.42,1.42h0l2.32,2.31,3.74-3.74,0,0,0,0,3.74,3.74,2.32-2.31h0l1.42-1.42v0l0,0,1.41,1.42h0l2.31,2.31,3.75-3.74,0,0,0,0,3.74,3.74.77-.77a53.41,53.41,0,0,0-2.59-7.15l-2-2-2.36,2.36L110.06,236l-1.41-1.42-2.32-2.31L104,234.54,102.6,236l-1.41-1.42-2.36-2.36-2.36,2.36L95.06,236l-1.42-1.42-2.31-2.31L89,234.54,87.6,236l-1.42-1.42-2.35-2.36-2.36,2.36L80.05,236l-1.41-1.42-2.32-2.31L74,234.54,72.59,236l-1.41-1.42-2.36-2.36-2.36,2.36L65.05,236l-1.42-1.42-2.31-2.31L59,234.54,57.59,236l-1.42-1.42-2.36-2.36-2.36,2.36L50,236l-1.42-1.42-2.31-2.31L44,234.54,42.58,236l-1.41-1.42-2.36-2.36-2.36,2.36L35,236l-1.41-1.42-2.31-2.31L29,234.54,27.58,236l-1.42-1.42-2.36-2.36-2.36,2.36L20,236l-1.42-1.42-2.31-2.31-.79.78a55.92,55.92,0,0,0-3.23,8.76Z"/><path class="cls-1" d="M38.17,304.32c.9.51,1.81,1,2.74,1.46l-2.1-2.1Z"/><path class="cls-1" d="M117.61,253.83l-1.41-1.41-2.36-2.36-2.36,2.36-1.42,1.41-1.41-1.41-2.32-2.32L104,252.42l-1.42,1.41-1.41-1.41-2.36-2.36-2.36,2.36-1.41,1.41-1.42-1.41-2.31-2.32L89,252.42l-1.41,1.41-1.42-1.41-2.35-2.36-2.36,2.36-1.42,1.41-1.41-1.41-2.32-2.32L74,252.42l-1.42,1.41-1.41-1.41-2.36-2.36-2.36,2.36-1.41,1.41-1.42-1.41-2.31-2.32L59,252.42l-1.41,1.41-1.42-1.41-2.36-2.36-2.36,2.36L50,253.83l-1.42-1.41-2.31-2.32L44,252.42l-1.42,1.41-1.41-1.41-2.36-2.36-2.36,2.36L35,253.83l-1.41-1.41-2.31-2.32L29,252.42l-1.41,1.41-1.42-1.41-2.36-2.36-2.36,2.36L20,253.83l-1.42-1.41L16.3,250.1,14,252.42l-1.42,1.41-1.41-1.41-.65-.65c-.13,1.53-.21,3.08-.21,4.65,0,.43,0,.85,0,1.28l2.24,2.24,2.31-2.31v0l1.41-1.41h0l1.42,1.41,0,0L20,259.94l3.74-3.74,0,0,0,0,3.75,3.74,2.31-2.31v0l1.41-1.41h0l1.41,1.41v0L35,259.94l3.75-3.74,0,0,0,0,3.74,3.74,2.32-2.31,0,0,1.42-1.41h0l1.41,1.41v0L50,259.94l3.74-3.74,0,0,0,0,3.75,3.74,2.31-2.31v0l1.41-1.41h0l1.42,1.41,0,0,2.32,2.31,3.74-3.74,0,0,0,0,3.74,3.74,2.32-2.31,0,0,1.42-1.41h0l1.41,1.41v0l2.31,2.31,3.74-3.74,0,0,0,0,3.74,3.74,2.31-2.31v0l1.41-1.41h0l1.42,1.41,0,0,2.32,2.31,3.74-3.74,0,0,0,0,3.74,3.74,2.32-2.31,0,0,1.42-1.41h0l1.41,1.41v0l2.31,2.31,3.75-3.74,0,0,0,0,3.74,3.74,2.31-2.31v0l.58-.58c0-.2,0-.4,0-.61,0-1.76-.09-3.5-.25-5.23L119,252.42Z"/><path class="cls-1" d="M50,206.31l3.74-3.74,0,0,0,0,3.75,3.74L59.9,204h0l1.41-1.42,0,0v0L62.75,204h0l2.32,2.31,3.74-3.74,0,0,0,0,3.74,3.74L74.91,204h0l1.42-1.42v0l0,0L77.75,204h0l2.31,2.31L82.37,204a55.11,55.11,0,0,0-34.47.17Z"/><path class="cls-1" d="M87.82,206.09l-.81-.37.59.59Z"/><path class="cls-1" d="M110.06,277.81l3.75-3.74,0,0,0,0,2.72,2.73a52.7,52.7,0,0,0,2-6.11l-1,1-1.41-1.42-2.36-2.36-2.36,2.36-1.42,1.42-1.41-1.42L106.33,268,104,270.29l-1.42,1.42-1.41-1.42-2.36-2.36-2.36,2.36-1.41,1.42-1.42-1.42L91.33,268,89,270.29l-1.41,1.42-1.42-1.42-2.35-2.36-2.36,2.36-1.42,1.42-1.41-1.42L76.32,268,74,270.29l-1.42,1.42-1.41-1.42-2.36-2.36-2.36,2.36-1.41,1.42-1.42-1.42L61.32,268,59,270.29l-1.41,1.42-1.42-1.42-2.36-2.36-2.36,2.36L50,271.71l-1.42-1.42L46.31,268,44,270.29l-1.42,1.42-1.41-1.42-2.36-2.36-2.36,2.36L35,271.71l-1.41-1.42L31.31,268,29,270.29l-1.41,1.42-1.42-1.42-2.36-2.36-2.36,2.36L20,271.71l-1.42-1.42L16.3,268,14,270.29l-1.42,1.42-.15-.16q.69,2.46,1.61,4.8l.85-.85h0l1.41-1.42h0l1.42,1.42h0L20,277.81l3.74-3.74,0,0,0,0,3.75,3.74,2.31-2.31h0l1.41-1.42h0l1.41,1.42h0L35,277.81l3.75-3.74,0,0,0,0,3.74,3.74,2.32-2.31h0l1.42-1.42h0l1.41,1.42h0L50,277.81l3.74-3.74,0,0,0,0,3.75,3.74,2.31-2.31h0l1.41-1.42h0l1.42,1.42h0l2.32,2.31,3.74-3.74,0,0,0,0,3.74,3.74,2.32-2.31h0l1.42-1.42h0l1.41,1.42h0l2.31,2.31,3.74-3.74,0,0,0,0,3.74,3.74,2.31-2.31h0l1.41-1.42h0l1.42,1.42h0l2.32,2.31,3.74-3.74,0,0,0,0,3.74,3.74,2.32-2.31h0l1.42-1.42h0l1.41,1.42h0Z"/><path class="cls-1" d="M119,243.53l-1.36,1.36-1.41-1.41-2.36-2.36-2.36,2.36-1.42,1.41-1.41-1.41-2.32-2.31L104,243.48l-1.42,1.41-1.41-1.41-2.36-2.36-2.36,2.36-1.41,1.41-1.42-1.41-2.31-2.31L89,243.48l-1.41,1.41-1.42-1.41-2.35-2.36-2.36,2.36-1.42,1.41-1.41-1.41-2.32-2.31L74,243.48l-1.42,1.41-1.41-1.41-2.36-2.36-2.36,2.36-1.41,1.41-1.42-1.41-2.31-2.31L59,243.48l-1.41,1.41-1.42-1.41-2.36-2.36-2.36,2.36L50,244.89l-1.42-1.41-2.31-2.31L44,243.48l-1.42,1.41-1.41-1.41-2.36-2.36-2.36,2.36L35,244.89l-1.41-1.41-2.31-2.31L29,243.48l-1.41,1.41-1.42-1.41-2.36-2.36-2.36,2.36L20,244.89l-1.42-1.41-2.31-2.31L14,243.48l-1.42,1.41-.86-.85c-.39,1.69-.7,3.42-.93,5.17L12.57,251l2.31-2.31v0l1.41-1.41h0l1.42,1.41,0,0L20,251l3.74-3.74,0,0,0,0L27.58,251l2.31-2.31v0l1.41-1.41h0l1.41,1.41v0L35,251l3.75-3.74,0,0,0,0L42.58,251l2.32-2.31,0,0,1.42-1.41h0l1.41,1.41v0L50,251l3.74-3.74,0,0,0,0L57.59,251l2.31-2.31v0l1.41-1.41h0l1.42,1.41,0,0L65.05,251l3.74-3.74,0,0,0,0L72.59,251l2.32-2.31,0,0,1.42-1.41h0l1.41,1.41v0L80.05,251l3.74-3.74,0,0,0,0L87.6,251l2.31-2.31v0l1.41-1.41h0l1.42,1.41,0,0L95.06,251l3.74-3.74,0,0,0,0L102.6,251l2.32-2.31,0,0,1.42-1.41h0l1.41,1.41v0l2.31,2.31,3.75-3.74,0,0,0,0,3.74,3.74,2.31-2.31v0l0,0C119.7,246.91,119.37,245.21,119,243.53Z"/><path class="cls-1" d="M117.61,262.77l-1.41-1.42L113.84,259l-2.36,2.35-1.42,1.42-1.41-1.42L106.33,259,104,261.35l-1.42,1.42-1.41-1.42L98.83,259l-2.36,2.35-1.41,1.42-1.42-1.42L91.33,259,89,261.35l-1.41,1.42-1.42-1.42L83.83,259l-2.36,2.35-1.42,1.42-1.41-1.42L76.32,259,74,261.35l-1.42,1.42-1.41-1.42L68.82,259l-2.36,2.35-1.41,1.42-1.42-1.42L61.32,259,59,261.35l-1.41,1.42-1.42-1.42L53.81,259l-2.36,2.35L50,262.77l-1.42-1.42L46.31,259,44,261.35l-1.42,1.42-1.41-1.42L38.81,259l-2.36,2.35L35,262.77l-1.41-1.42L31.31,259,29,261.35l-1.41,1.42-1.42-1.42L23.8,259l-2.36,2.35L20,262.77l-1.42-1.42L16.3,259,14,261.35l-1.42,1.42-1.41-1.42-.68-.67a53.69,53.69,0,0,0,1,7.1l1.09,1.1,2.31-2.32h0l1.41-1.42,0,0v0l1.42,1.42h0L20,268.88l3.74-3.75,0,0,0,0,3.75,3.75,2.31-2.32h0l1.41-1.42,0,0v0l1.41,1.42h0L35,268.88l3.75-3.75,0,0,0,0,3.74,3.75,2.32-2.32h0l1.42-1.42v0l0,0,1.41,1.42h0L50,268.88l3.74-3.75,0,0,0,0,3.75,3.75,2.31-2.32h0l1.41-1.42,0,0v0l1.42,1.42h0l2.32,2.32,3.74-3.75,0,0,0,0,3.74,3.75,2.32-2.32h0l1.42-1.42v0l0,0,1.41,1.42h0l2.31,2.32,3.74-3.75,0,0,0,0,3.74,3.75,2.31-2.32h0l1.41-1.42,0,0v0l1.42,1.42h0l2.32,2.32,3.74-3.75,0,0,0,0,3.74,3.75,2.32-2.32h0l1.42-1.42v0l0,0,1.41,1.42h0l2.31,2.32,3.75-3.75,0,0,0,0,3.74,3.75,1.86-1.87a53.56,53.56,0,0,0,.9-7L119,261.35Z"/><text class="cls-2" transform="translate(8.9 333.41)">linked to 1st<tspan x="-8.9" y="21">selected node</tspan></text><text class="cls-2" transform="translate(179.42 333.41)">linked to 2nd<tspan x="-5.57" y="21">selected node</tspan></text><circle class="cls-1" cx="124.88" cy="65.73" r="5.35"/><circle class="cls-1" cx="5.92" cy="65.73" r="5.35"/><circle class="cls-1" cx="65.76" cy="124.83" r="5.35"/><circle class="cls-1" cx="65.76" cy="5.87" r="5.35"/><circle class="cls-1" cx="107.73" cy="23.56" r="5.35"/><circle class="cls-1" cx="23.61" cy="107.68" r="5.35"/><circle class="cls-1" cx="107.72" cy="107.15" r="5.35"/><circle class="cls-1" cx="23.6" cy="23.04" r="5.35"/><circle class="cls-1" cx="95.39" cy="13.99" r="5.35"/><circle class="cls-1" cx="36.06" cy="117.09" r="5.35"/><circle class="cls-1" cx="117.13" cy="94.7" r="5.35"/><circle class="cls-1" cx="14.03" cy="35.37" r="5.35"/><circle class="cls-1" cx="50.29" cy="7.82" r="5.35"/><circle class="cls-1" cx="81.24" cy="122.69" r="5.35"/><circle class="cls-1" cx="122.74" cy="49.53" r="5.35"/><circle class="cls-1" cx="7.87" cy="80.48" r="5.35"/><circle class="cls-1" cx="80.23" cy="7.71" r="5.35"/><circle class="cls-1" cx="51.35" cy="123.12" r="5.35"/><circle class="cls-1" cx="123.21" cy="79.41" r="5.35"/><circle class="cls-1" cx="7.81" cy="50.53" r="5.35"/><circle class="cls-1" cx="35.15" cy="14.12" r="5.35"/><circle class="cls-1" cx="96.34" cy="116.14" r="5.35"/><circle class="cls-1" cx="116.24" cy="34.42" r="5.35"/><circle class="cls-1" cx="14.22" cy="95.6" r="5.35"/><text class="cls-2" transform="translate(51.32 153.84)">1st<tspan x="-51.32" y="21">selected node</tspan></text><text class="cls-2" transform="translate(221.84 153.84)">2nd<tspan x="-47.99" y="21">selected node</tspan></text><rect class="cls-3" x="237.91" width="2.68" height="11.53"/><rect class="cls-3" x="237.91" y="119.17" width="2.68" height="11.53"/><rect class="cls-3" x="297.5" y="59.59" width="2.68" height="11.53" transform="translate(364.19 -233.48) rotate(90)"/><rect class="cls-3" x="178.32" y="59.59" width="2.68" height="11.53" transform="translate(245.01 -114.31) rotate(90)"/><rect class="cls-3" x="280.04" y="17.45" width="2.68" height="11.53" transform="translate(98.83 -192.17) rotate(45)"/><rect class="cls-3" x="195.78" y="101.72" width="2.68" height="11.53" transform="translate(133.74 -107.9) rotate(45)"/><rect class="cls-3" x="280.04" y="101.72" width="2.68" height="11.53" transform="translate(556.35 -15.48) rotate(135)"/><rect class="cls-3" x="195.78" y="17.45" width="2.68" height="11.53" transform="translate(352.91 -99.75) rotate(135)"/><rect class="cls-3" x="252.36" y="1.78" width="2.68" height="11.53" transform="translate(9.4 -61.28) rotate(14.03)"/><rect class="cls-3" x="223.47" y="117.4" width="2.68" height="11.53" transform="translate(36.56 -50.82) rotate(14.03)"/><rect class="cls-3" x="295.72" y="74.03" width="2.68" height="11.53" transform="translate(446.49 -189.06) rotate(104.03)"/><rect class="cls-3" x="180.1" y="45.14" width="2.68" height="11.53" transform="translate(274.81 -112.78) rotate(104.03)"/><rect class="cls-3" x="289" y="28.92" width="2.68" height="11.53" transform="translate(170.67 -232.11) rotate(59.03)"/><rect class="cls-3" x="186.82" y="90.25" width="2.68" height="11.53" transform="translate(173.66 -114.73) rotate(59.03)"/><rect class="cls-3" x="268.57" y="110.68" width="2.68" height="11.53" transform="matrix(-0.86, 0.51, -0.51, -0.86, 561.26, 77.39)"/><rect class="cls-3" x="207.25" y="8.5" width="2.68" height="11.53" transform="matrix(-0.86, 0.51, -0.51, -0.86, 394.77, -80.85)"/><rect class="cls-3" x="267.74" y="8.01" width="2.68" height="11.53" transform="translate(43.05 -132.88) rotate(30.05)"/><rect class="cls-3" x="208.08" y="111.17" width="2.68" height="11.53" transform="translate(86.69 -89.14) rotate(30.05)"/><rect class="cls-3" x="289.49" y="89.42" width="2.68" height="11.53" transform="matrix(-0.5, 0.87, -0.87, -0.5, 518.84, -108.9)"/><rect class="cls-3" x="186.33" y="29.75" width="2.68" height="11.53" transform="translate(312.38 -109.15) rotate(120.05)"/><rect class="cls-3" x="295.48" y="44.21" width="2.68" height="11.53" transform="translate(268.51 -249.68) rotate(75.05)"/><rect class="cls-3" x="180.34" y="74.96" width="2.68" height="11.53" transform="translate(212.79 -115.63) rotate(75.05)"/><rect class="cls-3" x="253.29" y="117.16" width="2.68" height="11.53" transform="translate(532.34 175.97) rotate(165.05)"/><rect class="cls-3" x="222.53" y="2.02" width="2.68" height="11.53" transform="translate(442.17 -42.47) rotate(165.05)"/></g></g></svg>