<svg xmlns="http://www.w3.org/2000/svg" viewBox="0 0 115.68 115.68"><defs><style>.cls-1{opacity:0.7;}.cls-2{fill:#eb7dae;}</style></defs><title>アセット 6</title><g id="レイヤー_2" data-name="レイヤー 2"><g id="レイヤー_1-2" data-name="レイヤー 1"><g class="cls-1"><path class="cls-2" d="M105.26,91a57.57,57.57,0,0,0,6-10.86H4.44a57.57,57.57,0,0,0,6,10.86Z"/><path class="cls-2" d="M.6,66.12A57.63,57.63,0,0,0,3.26,77H112.43a56.86,56.86,0,0,0,2.65-10.86Z"/><path class="cls-2" d="M10.79,24.22A58,58,0,0,0,4.65,35.09H111a58,58,0,0,0-6.13-10.87Z"/><path class="cls-2" d="M115,49.05a57.08,57.08,0,0,0-2.77-10.86H3.43A57.84,57.84,0,0,0,.66,49.05Z"/><path class="cls-2" d="M.28,52.15C.1,54,0,55.92,0,57.84,0,59.59.09,61.31.24,63h115.2c.15-1.71.24-3.43.24-5.18,0-1.92-.1-3.81-.28-5.69Z"/><path class="cls-2" d="M29.08,108a57.84,57.84,0,0,0,57.53,0Z"/><path class="cls-2" d="M85.72,7.16A57.84,57.84,0,0,0,30,7.16Z"/><path class="cls-2" d="M25,10.26A58.1,58.1,0,0,0,13.15,21.12h89.38A58.31,58.31,0,0,0,90.72,10.26Z"/><path class="cls-2" d="M12.75,94.05a58.35,58.35,0,0,0,11.5,10.86H91.44a58,58,0,0,0,11.49-10.86Z"/></g></g></g></svg>