<svg xmlns="http://www.w3.org/2000/svg" viewBox="0 0 440.57 178.56"><defs><style>.cls-1{fill:#eb7dae;opacity:0.7;}.cls-2{font-size:20px;fill:#271d12;font-family:HelveticaNeue-Medium, Helvetica Neue;}</style></defs><title>アセット 9</title><g id="レイヤー_2" data-name="レイヤー 2"><g id="レイヤー_1-2" data-name="レイヤー 1"><rect class="cls-1" x="382.6" y="46.98" width="5.36" height="5.36"/><rect class="cls-1" x="382.6" y="57.69" width="5.36" height="5.36"/><rect class="cls-1" x="387.95" y="73.76" width="5.36" height="5.36"/><rect class="cls-1" x="382.6" y="36.27" width="5.36" height="5.36"/><rect class="cls-1" x="382.6" y="68.4" width="5.36" height="5.36"/><rect class="cls-1" x="382.6" y="79.12" width="5.36" height="5.36"/><path class="cls-1" d="M415.05,18.32V20.2h2.77C416.92,19.55,416,18.92,415.05,18.32Z"/><path class="cls-1" d="M333.75,73.76V68.4h5.36V63.05h-5.36V57.69h5.36V52.34h-5.36V47h5.36V41.63h-3.57c-.72,1.54-1.37,3.13-2,4.75V47h-.21c-.59,1.75-1.11,3.54-1.53,5.36h1.74v5.35h-2.7a52.58,52.58,0,0,0-.43,5.36h3.13V68.4h-3c.12,1.81.32,3.6.6,5.36h2.45v5.36h-1.3c.43,1.57.91,3.12,1.46,4.64V79.12h5.36V73.76Z"/><rect class="cls-1" x="382.6" y="25.56" width="5.36" height="5.36"/><path class="cls-1" d="M425.93,27.39v3.53h3C428,29.7,427,28.52,425.93,27.39Z"/><rect class="cls-1" x="387.95" y="84.47" width="5.36" height="5.36"/><rect class="cls-1" x="387.95" y="52.34" width="5.36" height="5.36"/><rect class="cls-1" x="382.6" y="100.54" width="5.36" height="5.36"/><rect class="cls-1" x="387.95" y="63.05" width="5.36" height="5.36"/><rect class="cls-1" x="387.95" y="105.89" width="5.36" height="5.36"/><path class="cls-1" d="M393.31,10.29c-1.76-.25-3.55-.42-5.36-.5v5.06h5.36Z"/><rect class="cls-1" x="387.95" y="95.18" width="5.36" height="5.36"/><rect class="cls-1" x="382.6" y="14.85" width="5.36" height="5.36"/><rect class="cls-1" x="387.95" y="41.63" width="5.36" height="5.36"/><rect class="cls-1" x="387.95" y="20.2" width="5.36" height="5.36"/><rect class="cls-1" x="387.95" y="30.92" width="5.36" height="5.36"/><rect class="cls-1" x="382.6" y="89.83" width="5.36" height="5.36"/><path class="cls-1" d="M398.83,111.25h5.35v-5.36h-5.35v-5.35h5.35V95.18h-5.35V89.83h5.35V84.47h-5.35V79.12h5.35V73.76h-5.35V68.4h5.35V63.05h-5.35V57.69h5.35V52.34h-5.35V47h5.35V41.63h-5.35V36.27h5.35V30.92h-5.35V25.56h5.35V20.2h-5.35V14.85h5.35V13a54.07,54.07,0,0,0-5.52-1.66v3.53h-5.35V20.2h5.35v5.36h-5.35v5.36h5.35v5.35h-5.35v5.36h5.35V47h-5.35v5.36h5.35v5.35h-5.35v5.36h5.35V68.4h-5.35v5.36h5.35v5.36h-5.35v5.35h5.35v5.36h-5.35v5.35h5.35v5.36h-5.35v5.35h5.35v5.36h-5.35v5.35h5.35v1.74a54.07,54.07,0,0,0,5.52-1.66v-.08h-5.35Z"/><rect class="cls-1" x="382.6" y="111.25" width="5.36" height="5.36"/><path class="cls-1" d="M371.72,118.19V116.6h-5.1C368.28,117.21,370,117.74,371.72,118.19Z"/><path class="cls-1" d="M388,119.87c1.81-.08,3.6-.25,5.36-.5V116.6H388Z"/><path class="cls-1" d="M350,106.93v-1h-1.2Z"/><path class="cls-1" d="M334,84.47a55.94,55.94,0,0,0,2.38,5.36h2.7V84.47Z"/><path class="cls-1" d="M409.7,100.54h5.35V95.18H409.7V89.83h5.35V84.47H409.7V79.12h5.35V73.76H409.7V68.4h5.35V63.05H409.7V57.69h5.35V52.34H409.7V47h5.35V41.63H409.7V36.27h5.35V30.92H409.7V25.56h5.35V20.2H409.7V15.31l-1-.46h-4.53V20.2h5.36v5.36h-5.36v5.36h5.36v5.35h-5.36v5.36h5.36V47h-5.36v5.36h5.36v5.35h-5.36v5.36h5.36V68.4h-5.36v5.36h5.36v5.36h-5.36v5.35h5.36v5.36h-5.36v5.35h5.36v5.36h-5.36v5.35h5.36v5.36h-5.36v5.35h.23a54.88,54.88,0,0,0,5.29-2.25v-3.1h5.35v-5.36H409.7Z"/><path class="cls-1" d="M366.37,105.89v-5.35h5.35V95.18h-5.35V89.83h5.35V84.47h-5.35V79.12h5.35V73.76h-5.35V68.4h5.35V63.05h-5.35V57.69h5.35V52.34h-5.35V47h5.35V41.63h-5.35V36.27h5.35V30.92h-5.35V25.56h5.35V20.2h-5.35V14.85h5.35V11.47a54.26,54.26,0,0,0-5.51,1.74v1.64h-3.89c-.5.23-1,.46-1.47.71V20.2h5.36v5.36h-5.36v5.36h5.36v5.35h-5.36v5.36h5.36V47h-5.36v5.36h5.36v5.35h-5.36v5.36h5.36V68.4h-5.36v5.36h5.36v5.36h-5.36v5.35h5.36v5.36h-5.36v5.35h5.36v5.36h-5.36v5.35h5.36v5.36h-5.36v2.85a54.2,54.2,0,0,0,5.52,2.41v-5.26h5.35v-5.36Z"/><path class="cls-1" d="M377.24,111.25h5.36v-5.36h-5.36v-5.35h5.36V95.18h-5.36V89.83h5.36V84.47h-5.36V79.12h5.36V73.76h-5.36V68.4h5.36V63.05h-5.36V57.69h5.36V52.34h-5.36V47h5.36V41.63h-5.36V36.27h5.36V30.92h-5.36V25.56h5.36V20.2h-5.36V14.85h5.36v-5a52.63,52.63,0,0,0-5.52.56v4.48h-5.36V20.2h5.36v5.36h-5.36v5.36h5.36v5.35h-5.36v5.36h5.36V47h-5.36v5.36h5.36v5.35h-5.36v5.36h5.36V68.4h-5.36v5.36h5.36v5.36h-5.36v5.35h5.36v5.36h-5.36v5.35h5.36v5.36h-5.36v5.35h5.36v5.36h-5.36v5.35h5.36v2.69a52.63,52.63,0,0,0,5.52.56V116.6h-5.36Z"/><path class="cls-1" d="M439.18,52.34q-.65-2.73-1.54-5.36h-.84v5.36Z"/><path class="cls-1" d="M440.57,63.05c-.06-1.81-.2-3.6-.43-5.36H436.8v5.36Z"/><path class="cls-1" d="M338.38,36.27h.73V35.14C338.86,35.52,338.61,35.89,338.38,36.27Z"/><path class="cls-1" d="M439.89,73.76c.28-1.76.48-3.55.6-5.36H436.8v5.36Z"/><path class="cls-1" d="M435.49,41.63h-4.05V36.27h1.21c-.44-.72-.9-1.43-1.37-2.13v2.13h-5.35v5.36h5.35V47h-5.35v5.36h5.35v5.35h-5.35v5.36h5.35V68.4h-5.35v5.36h5.35v5.36h-5.35v5.35h5.35v5.36h-5.35v5.35h5.35v.34c.08-.11.14-.23.22-.34h-.06V89.83h3.18q1.2-2.37,2.18-4.85v-.51h-5.36V79.12h5.36V73.76h-5.36V68.4h5.36V63.05h-5.36V57.69h5.36V52.34h-5.36V47h5.36v-2.3C436.39,43.65,436,42.63,435.49,41.63Z"/><path class="cls-1" d="M427.46,100.54h-1.53v1.73C426.45,101.71,427,101.13,427.46,100.54Z"/><path class="cls-1" d="M420.57,89.83h5.36V84.47h-5.36V79.12h5.36V73.76h-5.36V68.4h5.36V63.05h-5.36V57.69h5.36V52.34h-5.36V47h5.36V41.63h-5.36V36.27h5.36V30.92h-5.36V25.56h3.59c-1.2-1.18-2.45-2.31-3.75-3.37v3.37h-5.36v5.36h5.36v5.35h-5.36v5.36h5.36V47h-5.36v5.36h5.36v5.35h-5.36v5.36h5.36V68.4h-5.36v5.36h5.36v5.36h-5.36v5.35h5.36v5.36h-5.36v5.35h5.36v5.36h-5.36v5.35h5.36v1.58c.62-.51,1.23-1,1.84-1.58h-1.68v-5.35h5.36V95.18h-5.36Z"/><path class="cls-1" d="M437,84.47c.66-1.74,1.25-3.53,1.74-5.35H436.8v5.35Z"/><path class="cls-1" d="M344.62,95.18V89.83H350V84.47h-5.36V79.12H350V73.76h-5.36V68.4H350V63.05h-5.36V57.69H350V52.34h-5.36V47H350V41.63h-5.36V36.27H350V30.92h-5.36v-3c-.87,1-1.71,2-2.52,3h2.36v5.35h-5.35v5.36h5.35V47h-5.35v5.36h5.35v5.35h-5.35v5.36h5.35V68.4h-5.35v5.36h5.35v5.36h-5.35v5.35h5.35v5.36h-5.35v4.69l.42.66h4.93v5.36h-.89c.34.41.69.82,1.05,1.22v-1.22H350V95.18Z"/><path class="cls-1" d="M415.19,111.25h-.14v.08Z"/><path class="cls-1" d="M346.87,25.56H350V22.73C348.91,23.64,347.87,24.58,346.87,25.56Z"/><path class="cls-1" d="M355.5,105.89v-5.35h5.35V95.18H355.5V89.83h5.35V84.47H355.5V79.12h5.35V73.76H355.5V68.4h5.35V63.05H355.5V57.69h5.35V52.34H355.5V47h5.35V41.63H355.5V36.27h5.35V30.92H355.5V25.56h5.35V20.2H355.5V18.63c-.78.51-1.54,1-2.29,1.57h2.12v5.36H350v5.36h5.35v5.35H350v5.36h5.35V47H350v5.36h5.35v5.35H350v5.36h5.35V68.4H350v5.36h5.35v5.36H350v5.35h5.35v5.36H350v5.35h5.35v5.36H350v5.35h5.35v5l.51.33h5v-5.36Z"/><path class="cls-1" d="M242.32,113l3.74-3.74,0,0,0,0,3.75,3.74,2.31-2.31,0,0,1.42-1.41h0L255,110.7v0l1.23,1.23a55.34,55.34,0,0,0,7.86-5.8l-.64-.64-2.36-2.36-2.36,2.36-1.42,1.42-1.41-1.42-2.32-2.31-2.31,2.31-1.41,1.42-1.42-1.42-2.36-2.36-2.36,2.36-1.41,1.42-1.42-1.42-2.31-2.31-2.31,2.31-1.42,1.42-1.42-1.42-2.35-2.36-2.36,2.36-1.42,1.42-1.41-1.42-2.32-2.31-2.31,2.31-1.42,1.42-1.41-1.42-2.36-2.36-2.36,2.36-1.41,1.42-1.42-1.42-2.31-2.31-2.32,2.31-1.41,1.42-1.42-1.42-2.36-2.36-2.35,2.36-1.42,1.42-1.41-1.42-2.32-2.31-2.31,2.31-.36.36a56.65,56.65,0,0,0,7.76,5.81l2.38-2.39,0,0,0,0,3.74,3.74,2.31-2.31v0l1.41-1.41h0L210,110.7l0,0,2.32,2.31,3.74-3.74,0,0,0,0,3.74,3.74,2.32-2.31,0,0,1.42-1.41h0L225,110.7v0l2.31,2.31,3.75-3.74,0,0,0,0,3.74,3.74,2.31-2.31v0l1.41-1.41h0L240,110.7l0,0Z"/><path class="cls-1" d="M257.32,104.1l3.75-3.75,0,0,0,0,3.74,3.75,2.32-2.32h0l1.42-1.42v0l.63.62c.94-1.08,1.85-2.2,2.71-3.36l-1-1-2.31-2.31-2.31,2.31L264.87,98l-1.41-1.42-2.36-2.36-2.36,2.36L257.32,98l-1.41-1.42-2.32-2.31-2.31,2.31L249.87,98l-1.42-1.42-2.36-2.36-2.36,2.36L242.32,98l-1.42-1.42-2.31-2.31-2.31,2.31L234.86,98l-1.42-1.42-2.35-2.36-2.36,2.36L227.31,98l-1.41-1.42-2.32-2.31-2.31,2.31L219.85,98l-1.41-1.42-2.36-2.36-2.36,2.36L212.31,98l-1.42-1.42-2.31-2.31-2.32,2.31L204.85,98l-1.42-1.42-2.36-2.36-2.35,2.36L197.3,98l-1.41-1.42-2.32-2.31-2.31,2.31L189.84,98l-1.41-1.42-2.36-2.36-2.36,2.36-.63.63q1.29,1.76,2.7,3.41l.26-.26,0,0,0,0,3.74,3.75,2.32-2.32h0l1.42-1.42v0l0,0,1.41,1.42h0l2.31,2.32,3.74-3.75,0,0,0,0,3.74,3.75,2.31-2.32h0l1.41-1.42,0,0v0l1.42,1.42h0l2.32,2.32,3.74-3.75,0,0,0,0,3.74,3.75,2.32-2.32h0l1.42-1.42v0l0,0,1.41,1.42h0l2.31,2.32,3.75-3.75,0,0,0,0,3.74,3.75,2.31-2.32h0l1.41-1.42,0,0v0l1.42,1.42h0l2.32,2.32,3.74-3.75,0,0,0,0,3.75,3.75,2.31-2.32h0l1.42-1.42v0l0,0,1.41,1.42h0Z"/><path class="cls-1" d="M276.1,85.28l-2.36,2.36-1.41,1.41-1.42-1.41-2.31-2.32-2.31,2.32-1.42,1.41-1.41-1.41-2.36-2.36-2.36,2.36-1.42,1.41-1.41-1.41-2.32-2.32-2.31,2.32-1.41,1.41-1.42-1.41-2.36-2.36-2.36,2.36-1.41,1.41-1.42-1.41-2.31-2.32-2.31,2.32-1.42,1.41-1.42-1.41-2.35-2.36-2.36,2.36-1.42,1.41-1.41-1.41-2.32-2.32-2.31,2.32-1.42,1.41-1.41-1.41-2.36-2.36-2.36,2.36-1.41,1.41-1.42-1.41-2.31-2.32-2.32,2.32-1.41,1.41-1.42-1.41-2.36-2.36-2.35,2.36-1.42,1.41-1.41-1.41-2.32-2.32-2.31,2.32-1.42,1.41-1.41-1.41-2.36-2.36-2.36,2.36-1.42,1.41-1.41-1.41-2.31-2.32-1.45,1.45a54.78,54.78,0,0,0,3.43,6.64l1.74,1.75L186,91.41l0,0,0,0,3.74,3.75,2.32-2.32h0l1.42-1.42v0l0,0L195,92.83h0l2.31,2.32L201,91.41l0,0,0,0,3.74,3.75,2.31-2.32h0l1.41-1.42,0,0v0L210,92.83h0l2.32,2.32,3.74-3.75,0,0,0,0,3.74,3.75,2.32-2.32h0l1.42-1.42v0l0,0L225,92.83h0l2.31,2.32,3.75-3.75,0,0,0,0,3.74,3.75,2.31-2.32h0l1.41-1.42,0,0v0L240,92.83h0l2.32,2.32,3.74-3.75,0,0,0,0,3.75,3.75,2.31-2.32h0l1.42-1.42v0l0,0L255,92.83h0l2.31,2.32,3.75-3.75,0,0,0,0,3.74,3.75,2.32-2.32h0l1.42-1.42v0L270,92.83h0l2.31,2.32,3.42-3.42c.82-1.47,1.58-3,2.27-4.54Z"/><path class="cls-1" d="M185.38,29.52l.66-.67,0,0,0,0,3.74,3.75,2.32-2.32h0l1.42-1.42v0l0,0L195,30.27h0l2.31,2.32L201,28.85l0,0,0,0,3.74,3.75,2.31-2.32h0l1.41-1.42,0,0v0L210,30.27h0l2.32,2.32,3.74-3.75,0,0,0,0,3.74,3.75,2.32-2.32h0l1.42-1.42v0l0,0L225,30.27h0l2.31,2.32,3.75-3.75,0,0,0,0,3.74,3.75,2.31-2.32h0l1.41-1.42,0,0v0L240,30.27h0l2.32,2.32,3.74-3.75,0,0,0,0,3.75,3.75,2.31-2.32h0l1.42-1.42v0l0,0L255,30.27h0l2.31,2.32,3.75-3.75,0,0,0,0,3.74,3.75,2.32-2.32h0l1.42-1.42v0L270,30.27h0l2.31,2.32h0a56,56,0,0,0-6.29-7.28l-1.18,1.18-1.41-1.42-2.36-2.36-2.36,2.36-1.42,1.42-1.41-1.42-2.32-2.31-2.31,2.31-1.41,1.42-1.42-1.42-2.36-2.36-2.36,2.36-1.41,1.42-1.42-1.42-2.31-2.31-2.31,2.31-1.42,1.42-1.42-1.42-2.35-2.36-2.36,2.36-1.42,1.42-1.41-1.42-2.32-2.31-2.31,2.31-1.42,1.42-1.41-1.42-2.36-2.36-2.36,2.36-1.41,1.42-1.42-1.42-2.31-2.31-2.32,2.31-1.41,1.42-1.42-1.42-2.36-2.36-2.35,2.36-1.42,1.42-1.41-1.42-2.32-2.31-2.31,2.31-1.42,1.42-.87-.88Q187.08,27.49,185.38,29.52Z"/><path class="cls-1" d="M195,21.33h0l2.31,2.32L201,19.92l0,0,0,0,3.74,3.74,2.31-2.32h0l1.41-1.41h0L210,21.33h0l2.32,2.32,3.74-3.74,0,0,0,0,3.74,3.74,2.32-2.32h0l1.42-1.41h0L225,21.33h0l2.31,2.32,3.75-3.74,0,0,0,0,3.74,3.74,2.31-2.32h0l1.41-1.41h0L240,21.33h0l2.32,2.32,3.74-3.74,0,0,0,0,3.75,3.74,2.31-2.32h0l1.42-1.41h0L255,21.33h0l2.31,2.32,3.12-3.12A53.83,53.83,0,0,0,252,15.4l-.74.74-1.41,1.41-1.42-1.41-2.36-2.36-2.36,2.36-1.41,1.41-1.42-1.41-2.31-2.32-2.31,2.32-1.42,1.41-1.42-1.41-2.35-2.36-2.36,2.36-1.42,1.41-1.41-1.41-2.32-2.32-2.31,2.32-1.42,1.41-1.41-1.41-2.36-2.36-2.36,2.36-1.41,1.41-1.42-1.41-2.31-2.32-2.32,2.32-1.41,1.41-1.42-1.41-.53-.53a55.34,55.34,0,0,0-8.4,5.22Z"/><path class="cls-1" d="M248.45,114.45l-2.36-2.36-2.36,2.36-1.41,1.41-1.42-1.41-2.31-2.32-2.31,2.32-1.42,1.41-1.42-1.41-2.35-2.36-2.36,2.36-1.42,1.41-1.41-1.41-2.32-2.32-2.31,2.32-1.42,1.41-1.41-1.41-2.36-2.36-2.36,2.36-1.41,1.41-1.42-1.41-2.31-2.32-2.32,2.32-.8.81a55,55,0,0,0,10.21,3.35l.38-.38,0,0,0,0,.62.61c1.78.36,3.6.63,5.44.82h0l0,0,1.42-1.41h0l1.41,1.41v0l.21.21c.82,0,1.63.06,2.46.06.58,0,1.15,0,1.72,0l1.67-1.66,0,0,0,0,1.47,1.47c1.77-.16,3.51-.4,5.23-.72l.75-.75h0l.51.5a53.92,53.92,0,0,0,10.34-3.28Z"/><path class="cls-1" d="M204.93,14.64l-.11,0,0,0Z"/><path class="cls-1" d="M251.28,114.45l-.32.32c1.19-.56,2.35-1.15,3.49-1.78l-.86-.86Z"/><path class="cls-1" d="M180,39.21h0l2.31,2.31L186,37.79l0,0,0,0,3.74,3.74,2.32-2.31h0l1.42-1.42h0L195,39.21h0l2.31,2.31L201,37.79l0,0,0,0,3.74,3.74,2.31-2.31h0l1.41-1.42h0L210,39.21h0l2.32,2.31,3.74-3.74,0,0,0,0,3.74,3.74,2.32-2.31h0l1.42-1.42h0L225,39.21h0l2.31,2.31,3.75-3.74,0,0,0,0,3.74,3.74,2.31-2.31h0l1.41-1.42h0L240,39.21h0l2.32,2.31,3.74-3.74,0,0,0,0,3.75,3.74,2.31-2.31h0l1.42-1.42h0L255,39.21h0l2.31,2.31,3.75-3.74,0,0,0,0,3.74,3.74,2.32-2.31h0l1.42-1.42h0L270,39.21h0l2.31,2.31L275.82,38c-.72-1.29-1.49-2.56-2.32-3.79l-1.17,1.18L270.91,34,268.6,31.7,266.29,34l-1.42,1.42L263.46,34l-2.36-2.36L258.74,34l-1.42,1.42L255.91,34l-2.32-2.31L251.28,34l-1.41,1.42L248.45,34l-2.36-2.36L243.73,34l-1.41,1.42L240.9,34l-2.31-2.31L236.28,34l-1.42,1.42L233.44,34l-2.35-2.36L228.73,34l-1.42,1.42L225.9,34l-2.32-2.31L221.27,34l-1.42,1.42L218.44,34l-2.36-2.36L213.72,34l-1.41,1.42L210.89,34l-2.31-2.31L206.26,34l-1.41,1.42L203.43,34l-2.36-2.36L198.72,34l-1.42,1.42L195.89,34l-2.32-2.31L191.26,34l-1.42,1.42L188.43,34l-2.36-2.36L183.71,34l-1.42,1.42-.74-.75c-.81,1.24-1.58,2.5-2.28,3.8Z"/><path class="cls-1" d="M174.84,50.47l2.31-2.31v0l1.41-1.41h0L180,48.14l0,0,2.31,2.31L186,46.73l0,0,0,0,3.74,3.74,2.32-2.31,0,0,1.42-1.41h0L195,48.14v0l2.31,2.31L201,46.73l0,0,0,0,3.74,3.74,2.31-2.31v0l1.41-1.41h0L210,48.14l0,0,2.32,2.31,3.74-3.74,0,0,0,0,3.74,3.74,2.32-2.31,0,0,1.42-1.41h0L225,48.14v0l2.31,2.31,3.75-3.74,0,0,0,0,3.74,3.74,2.31-2.31v0l1.41-1.41h0L240,48.14l0,0,2.32,2.31,3.74-3.74,0,0,0,0,3.75,3.74,2.31-2.31,0,0,1.42-1.41h0L255,48.14v0l2.31,2.31,3.75-3.74,0,0,0,0,3.74,3.74,2.32-2.31,0,0,1.42-1.41h0L270,48.14v0l2.31,2.31,3.74-3.74,0,0,0,0,3.75,3.74.77-.77a54.31,54.31,0,0,0-2.59-7.15l-2-2L273.74,43l-1.41,1.41L270.91,43l-2.31-2.31L266.29,43l-1.42,1.41L263.46,43l-2.36-2.36L258.74,43l-1.42,1.41L255.91,43l-2.32-2.31L251.28,43l-1.41,1.41L248.45,43l-2.36-2.36L243.73,43l-1.41,1.41L240.9,43l-2.31-2.31L236.28,43l-1.42,1.41L233.44,43l-2.35-2.36L228.73,43l-1.42,1.41L225.9,43l-2.32-2.31L221.27,43l-1.42,1.41L218.44,43l-2.36-2.36L213.72,43l-1.41,1.41L210.89,43l-2.31-2.31L206.26,43l-1.41,1.41L203.43,43l-2.36-2.36L198.72,43l-1.42,1.41L195.89,43l-2.32-2.31L191.26,43l-1.42,1.41L188.43,43l-2.36-2.36L183.71,43l-1.42,1.41L180.88,43l-2.31-2.31-.79.78a54,54,0,0,0-3.23,8.76Z"/><path class="cls-1" d="M200.44,112.73c.9.51,1.81,1,2.74,1.46l-2.11-2.1Z"/><path class="cls-1" d="M279.88,62.24l-1.42-1.42-2.36-2.36-2.36,2.36-1.41,1.42-1.42-1.42-2.31-2.31-2.31,2.31-1.42,1.42-1.41-1.42-2.36-2.36-2.36,2.36-1.42,1.42-1.41-1.42-2.32-2.31-2.31,2.31-1.41,1.42-1.42-1.42-2.36-2.36-2.36,2.36-1.41,1.42-1.42-1.42-2.31-2.31-2.31,2.31-1.42,1.42-1.42-1.42-2.35-2.36-2.36,2.36-1.42,1.42-1.41-1.42-2.32-2.31-2.31,2.31-1.42,1.42-1.41-1.42-2.36-2.36-2.36,2.36-1.41,1.42-1.42-1.42-2.31-2.31-2.32,2.31-1.41,1.42-1.42-1.42-2.36-2.36-2.35,2.36-1.42,1.42-1.41-1.42-2.32-2.31-2.31,2.31-1.42,1.42-1.41-1.42-2.36-2.36-2.36,2.36-1.42,1.42-1.41-1.42-2.31-2.31-2.32,2.31-1.41,1.42-1.42-1.42-.65-.64c-.12,1.53-.21,3.08-.21,4.65,0,.43,0,.85,0,1.27l2.24,2.25L177.15,66h0l1.41-1.42,0,0v0L180,66h0l2.31,2.32L186,64.6l0,0,0,0,3.74,3.75L192.16,66h0l1.42-1.42v0l0,0L195,66h0l2.31,2.32L201,64.6l0,0,0,0,3.74,3.75L207.16,66h0l1.41-1.42,0,0v0L210,66h0l2.32,2.32,3.74-3.75,0,0,0,0,3.74,3.75L222.17,66h0l1.42-1.42v0l0,0L225,66h0l2.31,2.32,3.75-3.75,0,0,0,0,3.74,3.75L237.17,66h0l1.41-1.42,0,0v0L240,66h0l2.32,2.32,3.74-3.75,0,0,0,0,3.75,3.75L252.18,66h0l1.42-1.42v0l0,0L255,66h0l2.31,2.32,3.75-3.75,0,0,0,0,3.74,3.75L267.19,66h0l1.42-1.42v0L270,66h0l2.31,2.32,3.74-3.75,0,0,0,0,3.75,3.75L282.19,66h0l.57-.58c0-.2,0-.41,0-.61,0-1.76-.09-3.51-.26-5.23l-1.22,1.22Z"/><path class="cls-1" d="M212.31,14.72,216.05,11l0,0,0,0,3.74,3.74,2.32-2.31,0,0L223.57,11h0L225,12.39v0l2.31,2.31L231.06,11l0,0,0,0,3.74,3.74,2.31-2.31v0L238.57,11h0L240,12.39l0,0,2.32,2.31,2.32-2.32a55.21,55.21,0,0,0-34.47.18Z"/><path class="cls-1" d="M250.09,14.5l-.81-.37.59.59Z"/><path class="cls-1" d="M272.33,86.22l3.74-3.74,0,0,0,0,2.73,2.72a54.51,54.51,0,0,0,2-6.1l-1,1-1.42-1.41-2.36-2.36-2.36,2.36-1.41,1.41-1.42-1.41-2.31-2.32-2.31,2.32-1.42,1.41-1.41-1.41-2.36-2.36-2.36,2.36-1.42,1.41-1.41-1.41-2.32-2.32-2.31,2.32-1.41,1.41-1.42-1.41-2.36-2.36-2.36,2.36-1.41,1.41L240.9,78.7l-2.31-2.32-2.31,2.32-1.42,1.41-1.42-1.41-2.35-2.36-2.36,2.36-1.42,1.41L225.9,78.7l-2.32-2.32-2.31,2.32-1.42,1.41-1.41-1.41-2.36-2.36-2.36,2.36-1.41,1.41-1.42-1.41-2.31-2.32-2.32,2.32-1.41,1.41-1.42-1.41-2.36-2.36-2.35,2.36-1.42,1.41-1.41-1.41-2.32-2.32-2.31,2.32-1.42,1.41-1.41-1.41-2.36-2.36-2.36,2.36-1.42,1.41-1.41-1.41-2.31-2.32-2.32,2.32-1.41,1.41-.15-.15q.69,2.45,1.61,4.8l.85-.85v0l1.41-1.41h0L180,83.89l0,0,2.31,2.31L186,82.48l0,0,0,0,3.74,3.74,2.32-2.31,0,0,1.42-1.41h0L195,83.89v0l2.31,2.31L201,82.48l0,0,0,0,3.74,3.74,2.31-2.31v0l1.41-1.41h0L210,83.89l0,0,2.32,2.31,3.74-3.74,0,0,0,0,3.74,3.74,2.32-2.31,0,0,1.42-1.41h0L225,83.89v0l2.31,2.31,3.75-3.74,0,0,0,0,3.74,3.74,2.31-2.31v0l1.41-1.41h0L240,83.89l0,0,2.32,2.31,3.74-3.74,0,0,0,0,3.75,3.74,2.31-2.31,0,0,1.42-1.41h0L255,83.89v0l2.31,2.31,3.75-3.74,0,0,0,0,3.74,3.74,2.32-2.31,0,0,1.42-1.41h0L270,83.89v0Z"/><path class="cls-1" d="M281.24,51.94l-1.36,1.36-1.42-1.41-2.36-2.36-2.36,2.36-1.41,1.41-1.42-1.41-2.31-2.32-2.31,2.32-1.42,1.41-1.41-1.41-2.36-2.36-2.36,2.36-1.42,1.41-1.41-1.41-2.32-2.32-2.31,2.32-1.41,1.41-1.42-1.41-2.36-2.36-2.36,2.36-1.41,1.41-1.42-1.41-2.31-2.32-2.31,2.32-1.42,1.41-1.42-1.41-2.35-2.36-2.36,2.36-1.42,1.41-1.41-1.41-2.32-2.32-2.31,2.32-1.42,1.41-1.41-1.41-2.36-2.36-2.36,2.36-1.41,1.41-1.42-1.41-2.31-2.32-2.32,2.32-1.41,1.41-1.42-1.41-2.36-2.36-2.35,2.36L197.3,53.3l-1.41-1.41-2.32-2.32-2.31,2.32-1.42,1.41-1.41-1.41-2.36-2.36-2.36,2.36-1.42,1.41-1.41-1.41-2.31-2.32-2.32,2.32-1.41,1.41-.86-.86q-.58,2.55-.93,5.18l1.79,1.79,2.31-2.32h0l1.41-1.42,0,0v0L180,57.08h0l2.31,2.32L186,55.66l0,0,0,0,3.74,3.75,2.32-2.32h0l1.42-1.42v0l0,0L195,57.08h0l2.31,2.32L201,55.66l0,0,0,0,3.74,3.75,2.31-2.32h0l1.41-1.42,0,0v0L210,57.08h0l2.32,2.32,3.74-3.75,0,0,0,0,3.74,3.75,2.32-2.32h0l1.42-1.42v0l0,0L225,57.08h0l2.31,2.32,3.75-3.75,0,0,0,0,3.74,3.75,2.31-2.32h0l1.41-1.42,0,0v0L240,57.08h0l2.32,2.32,3.74-3.75,0,0,0,0,3.75,3.75,2.31-2.32h0l1.42-1.42v0l0,0L255,57.08h0l2.31,2.32,3.75-3.75,0,0,0,0,3.74,3.75,2.32-2.32h0l1.42-1.42v0L270,57.08h0l2.31,2.32,3.74-3.75,0,0,0,0,3.75,3.75,2.31-2.32h0l0,0C282,55.32,281.64,53.62,281.24,51.94Z"/><path class="cls-1" d="M279.88,71.18l-1.42-1.42L276.1,67.4l-2.36,2.36-1.41,1.42-1.42-1.42-2.31-2.31-2.31,2.31-1.42,1.42-1.41-1.42L261.1,67.4l-2.36,2.36-1.42,1.42-1.41-1.42-2.32-2.31-2.31,2.31-1.41,1.42-1.42-1.42-2.36-2.36-2.36,2.36-1.41,1.42-1.42-1.42-2.31-2.31-2.31,2.31-1.42,1.42-1.42-1.42-2.35-2.36-2.36,2.36-1.42,1.42-1.41-1.42-2.32-2.31-2.31,2.31-1.42,1.42-1.41-1.42-2.36-2.36-2.36,2.36-1.41,1.42-1.42-1.42-2.31-2.31-2.32,2.31-1.41,1.42-1.42-1.42-2.36-2.36-2.35,2.36-1.42,1.42-1.41-1.42-2.32-2.31-2.31,2.31-1.42,1.42-1.41-1.42-2.36-2.36-2.36,2.36-1.42,1.42-1.41-1.42-2.31-2.31-2.32,2.31-1.41,1.42-1.42-1.42-.68-.68a57.12,57.12,0,0,0,1,7.11l1.1,1.09L177.15,75v0l1.41-1.41h0L180,75l0,0,2.31,2.31L186,73.54l0,0,0,0,3.74,3.74L192.16,75l0,0,1.42-1.41h0L195,75v0l2.31,2.31L201,73.54l0,0,0,0,3.74,3.74L207.16,75v0l1.41-1.41h0L210,75l0,0,2.32,2.31,3.74-3.74,0,0,0,0,3.74,3.74L222.17,75l0,0,1.42-1.41h0L225,75v0l2.31,2.31,3.75-3.74,0,0,0,0,3.74,3.74L237.17,75v0l1.41-1.41h0L240,75l0,0,2.32,2.31,3.74-3.74,0,0,0,0,3.75,3.74L252.18,75l0,0,1.42-1.41h0L255,75v0l2.31,2.31,3.75-3.74,0,0,0,0,3.74,3.74L267.19,75l0,0,1.42-1.41h0L270,75v0l2.31,2.31,3.74-3.74,0,0,0,0,3.75,3.74,1.86-1.86a53.94,53.94,0,0,0,.9-7l-1.35,1.35Z"/><circle class="cls-1" cx="64.83" cy="64.83" r="49.29"/><circle class="cls-1" cx="124.31" cy="65.21" r="5.35"/><circle class="cls-1" cx="5.35" cy="65.21" r="5.35"/><circle class="cls-1" cx="65.19" cy="124.31" r="5.35"/><circle class="cls-1" cx="65.19" cy="5.35" r="5.35"/><circle class="cls-1" cx="107.16" cy="23.04" r="5.35"/><circle class="cls-1" cx="23.04" cy="107.16" r="5.35"/><circle class="cls-1" cx="107.15" cy="106.63" r="5.35"/><circle class="cls-1" cx="23.03" cy="22.51" r="5.35"/><circle class="cls-1" cx="94.82" cy="13.46" r="5.35"/><circle class="cls-1" cx="35.49" cy="116.57" r="5.35"/><circle class="cls-1" cx="116.56" cy="94.18" r="5.35"/><circle class="cls-1" cx="13.46" cy="34.85" r="5.35"/><circle class="cls-1" cx="49.72" cy="7.3" r="5.35"/><circle class="cls-1" cx="80.67" cy="122.16" r="5.35"/><circle class="cls-1" cx="122.17" cy="49" r="5.35"/><circle class="cls-1" cx="7.3" cy="79.95" r="5.35"/><circle class="cls-1" cx="79.66" cy="7.19" r="5.35"/><circle class="cls-1" cx="50.78" cy="122.59" r="5.35"/><circle class="cls-1" cx="122.64" cy="78.89" r="5.35"/><circle class="cls-1" cx="7.24" cy="50.01" r="5.35"/><circle class="cls-1" cx="34.58" cy="13.6" r="5.35"/><circle class="cls-1" cx="95.77" cy="115.62" r="5.35"/><circle class="cls-1" cx="115.68" cy="33.9" r="5.35"/><circle class="cls-1" cx="13.65" cy="95.08" r="5.35"/><text class="cls-2" transform="translate(25.55 162.32)">selected</text><text class="cls-2" transform="translate(193.58 151.82)">directly<tspan x="6.49" y="21">linked</tspan></text><text class="cls-2" transform="translate(343.28 151.82)">indirectly<tspan x="14.64" y="21">linked</tspan></text></g></g></svg>