<svg xmlns="http://www.w3.org/2000/svg" viewBox="0 0 115.68 115.68"><defs><style>.cls-1{opacity:0.7;}.cls-2{fill:#eb7dae;}</style></defs><title>アセット 7</title><g id="レイヤー_2" data-name="レイヤー 2"><g id="レイヤー_1-2" data-name="レイヤー 1"><g class="cls-1"><path class="cls-2" d="M24.74,105.26a57.27,57.27,0,0,0,10.86,6V4.44a57.27,57.27,0,0,0-10.86,6Z"/><path class="cls-2" d="M49.56.6A57.63,57.63,0,0,0,38.7,3.26V112.43a56.86,56.86,0,0,0,10.86,2.65Z"/><path class="cls-2" d="M91.46,10.79A58,58,0,0,0,80.6,4.65V111a57.91,57.91,0,0,0,10.86-6.13Z"/><path class="cls-2" d="M66.63,115a56.89,56.89,0,0,0,10.86-2.77V3.43A57.64,57.64,0,0,0,66.63.66Z"/><path class="cls-2" d="M63.53.28C61.66.1,59.76,0,57.84,0c-1.74,0-3.47.09-5.17.24v115.2c1.7.15,3.43.24,5.17.24,1.92,0,3.82-.1,5.69-.28Z"/><path class="cls-2" d="M7.67,29.08a57.77,57.77,0,0,0,0,57.53Z"/><path class="cls-2" d="M108.53,85.72a57.91,57.91,0,0,0,0-55.75Z"/><path class="cls-2" d="M105.42,25A57.81,57.81,0,0,0,94.56,13.15v89.38a58,58,0,0,0,10.86-11.81Z"/><path class="cls-2" d="M21.63,12.75a58.35,58.35,0,0,0-10.86,11.5V91.44a58,58,0,0,0,10.86,11.49Z"/></g></g></g></svg>