<svg xmlns="http://www.w3.org/2000/svg" viewBox="0 0 129.66 129.66"><defs><style>.cls-1{fill:#eb7dae;opacity:0.7;}</style></defs><title>アセット 5</title><g id="レイヤー_2" data-name="レイヤー 2"><g id="レイヤー_1-2" data-name="レイヤー 1"><circle class="cls-1" cx="64.83" cy="64.83" r="49.29"/><circle class="cls-1" cx="124.31" cy="65.21" r="5.35"/><circle class="cls-1" cx="5.35" cy="65.21" r="5.35"/><circle class="cls-1" cx="65.19" cy="124.31" r="5.35"/><circle class="cls-1" cx="65.19" cy="5.35" r="5.35"/><circle class="cls-1" cx="107.16" cy="23.04" r="5.35"/><circle class="cls-1" cx="23.04" cy="107.16" r="5.35"/><circle class="cls-1" cx="107.15" cy="106.63" r="5.35"/><circle class="cls-1" cx="23.03" cy="22.51" r="5.35"/><circle class="cls-1" cx="94.82" cy="13.46" r="5.35"/><circle class="cls-1" cx="35.49" cy="116.57" r="5.35"/><circle class="cls-1" cx="116.56" cy="94.18" r="5.35"/><circle class="cls-1" cx="13.46" cy="34.85" r="5.35"/><circle class="cls-1" cx="49.72" cy="7.3" r="5.35"/><circle class="cls-1" cx="80.67" cy="122.16" r="5.35"/><circle class="cls-1" cx="122.17" cy="49" r="5.35"/><circle class="cls-1" cx="7.3" cy="79.95" r="5.35"/><circle class="cls-1" cx="79.66" cy="7.19" r="5.35"/><circle class="cls-1" cx="50.78" cy="122.59" r="5.35"/><circle class="cls-1" cx="122.64" cy="78.89" r="5.35"/><circle class="cls-1" cx="7.24" cy="50.01" r="5.35"/><circle class="cls-1" cx="34.58" cy="13.6" r="5.35"/><circle class="cls-1" cx="95.77" cy="115.62" r="5.35"/><circle class="cls-1" cx="115.68" cy="33.9" r="5.35"/><circle class="cls-1" cx="13.65" cy="95.08" r="5.35"/></g></g></svg>