<svg xmlns="http://www.w3.org/2000/svg" viewBox="0 0 445.36 178.56"><defs><style>.cls-1,.cls-4{fill:#eb7dae;}.cls-1,.cls-3{opacity:0.7;}.cls-2{font-size:20px;fill:#271d12;font-family:HelveticaNeue-Medium, Helvetica Neue;}</style></defs><title>アセット 8</title><g id="レイヤー_2" data-name="レイヤー 2"><g id="レイヤー_1-2" data-name="レイヤー 1"><circle class="cls-1" cx="64.83" cy="64.83" r="49.29"/><circle class="cls-1" cx="124.31" cy="65.21" r="5.35"/><circle class="cls-1" cx="5.35" cy="65.21" r="5.35"/><circle class="cls-1" cx="65.19" cy="124.31" r="5.35"/><circle class="cls-1" cx="65.19" cy="5.35" r="5.35"/><circle class="cls-1" cx="107.16" cy="23.04" r="5.35"/><circle class="cls-1" cx="23.04" cy="107.16" r="5.35"/><circle class="cls-1" cx="107.15" cy="106.63" r="5.35"/><circle class="cls-1" cx="23.03" cy="22.51" r="5.35"/><circle class="cls-1" cx="94.82" cy="13.46" r="5.35"/><circle class="cls-1" cx="35.49" cy="116.57" r="5.35"/><circle class="cls-1" cx="116.56" cy="94.18" r="5.35"/><circle class="cls-1" cx="13.46" cy="34.85" r="5.35"/><circle class="cls-1" cx="49.72" cy="7.3" r="5.35"/><circle class="cls-1" cx="80.67" cy="122.16" r="5.35"/><circle class="cls-1" cx="122.17" cy="49" r="5.35"/><circle class="cls-1" cx="7.3" cy="79.95" r="5.35"/><circle class="cls-1" cx="79.66" cy="7.19" r="5.35"/><circle class="cls-1" cx="50.78" cy="122.59" r="5.35"/><circle class="cls-1" cx="122.64" cy="78.89" r="5.35"/><circle class="cls-1" cx="7.24" cy="50.01" r="5.35"/><circle class="cls-1" cx="34.58" cy="13.6" r="5.35"/><circle class="cls-1" cx="95.77" cy="115.62" r="5.35"/><circle class="cls-1" cx="115.68" cy="33.9" r="5.35"/><circle class="cls-1" cx="13.65" cy="95.08" r="5.35"/><text class="cls-2" transform="translate(25.55 162.32)">selected</text><g class="cls-3"><path class="cls-4" d="M196.56,112.25a57.57,57.57,0,0,0,10.86,6V11.43a57.57,57.57,0,0,0-10.86,6Z"/><path class="cls-4" d="M221.39,7.59a56.86,56.86,0,0,0-10.86,2.65V119.41a57.63,57.63,0,0,0,10.86,2.66Z"/><path class="cls-4" d="M263.28,17.77a57.59,57.59,0,0,0-10.86-6.13V118a57.64,57.64,0,0,0,10.86-6.14Z"/><path class="cls-4" d="M238.46,122a57.84,57.84,0,0,0,10.86-2.77V10.42a57.08,57.08,0,0,0-10.86-2.77Z"/><path class="cls-4" d="M235.35,7.27c-1.87-.18-3.76-.28-5.68-.28-1.75,0-3.47.09-5.18.24v115.2c1.71.15,3.43.24,5.18.24,1.92,0,3.81-.1,5.68-.28Z"/><path class="cls-4" d="M179.49,36.07a57.76,57.76,0,0,0,0,57.52Z"/><path class="cls-4" d="M280.35,92.7a57.82,57.82,0,0,0,0-55.74Z"/><path class="cls-4" d="M277.25,32a58.31,58.31,0,0,0-10.86-11.81v89.38A58.1,58.1,0,0,0,277.25,97.7Z"/><path class="cls-4" d="M193.46,19.74A57.73,57.73,0,0,0,182.6,31.23V98.42a57.52,57.52,0,0,0,10.86,11.5Z"/></g><text class="cls-2" transform="translate(195.58 151.82)">directly<tspan x="6.49" y="21">linked</tspan></text><g class="cls-3"><path class="cls-4" d="M434.93,97.93a57.87,57.87,0,0,0,6-10.86H334.11a57.31,57.31,0,0,0,6,10.86Z"/><path class="cls-4" d="M330.27,73.11A57.63,57.63,0,0,0,332.93,84H442.1a57.63,57.63,0,0,0,2.66-10.86Z"/><path class="cls-4" d="M340.46,31.21a57.91,57.91,0,0,0-6.13,10.86H440.7a57.91,57.91,0,0,0-6.13-10.86Z"/><path class="cls-4" d="M444.69,56a57.82,57.82,0,0,0-2.76-10.86H333.1A57.82,57.82,0,0,0,330.34,56Z"/><path class="cls-4" d="M330,59.14c-.18,1.87-.28,3.77-.28,5.69,0,1.74.09,3.47.25,5.17H445.11c.15-1.7.25-3.43.25-5.17a56.3,56.3,0,0,0-.29-5.69Z"/><path class="cls-4" d="M358.75,115a57.77,57.77,0,0,0,57.53,0Z"/><path class="cls-4" d="M415.39,14.14a57.91,57.91,0,0,0-55.75,0Z"/><path class="cls-4" d="M354.64,17.25a58.07,58.07,0,0,0-11.82,10.86H432.2a58,58,0,0,0-11.81-10.86Z"/><path class="cls-4" d="M342.42,101a58.35,58.35,0,0,0,11.5,10.86h67.19A58.35,58.35,0,0,0,432.61,101Z"/></g><text class="cls-2" transform="translate(345.28 151.82)">indirectly<tspan x="14.64" y="21">linked</tspan></text></g></g></svg>